# xmcd
#
# Track frame offsets: 
#        150
#        8695
#        18732
#        30720
#        39215
#        53210
#        62225
#        71695
#        83637
#        97122
#        107042
#        120665
#
# Disc length: 1817 seconds
#
# Revision: 0
# Processed by: cddbd v1.5.2PL0 Copyright (c) Steve Scherf et al.
# Submitted via: ExactAudioCopy v0.95a5
#
DISCID=9907170c
DTITLE=Carl Story - Mighty Close to Heaven
DYEAR=1963
DGENRE=Country
TTITLE0=Amazing Grace
TTITLE1=You Don't Love God (If You Don't Love Your Neighbor)
TTITLE2=Row Us Over the Tide
TTITLE3=Hand in Hand
TTITLE4=Rank Stranger
TTITLE5=Campin' in Canaan Land
TTITLE6=Follow Him
TTITLE7=Just One Rose Will Do
TTITLE8=I'll Need the Prayers
TTITLE9=My Time Will Come Someday
TTITLE10=Mighty Close to Heaven
TTITLE11=Picture From Life's Other Side
EXTD=
EXTT0=
EXTT1=
EXTT2=
EXTT3=
EXTT4=
EXTT5=
EXTT6=
EXTT7=
EXTT8=
EXTT9=
EXTT10=
EXTT11=
PLAYORDER=
